<?xml version="1.0" encoding="utf-8"?>
<!-- Generator: Adobe Illustrator 21.0.0, SVG Export Plug-In . SVG Version: 6.00 Build 0)  -->
<svg version="1.1" xmlns="http://www.w3.org/2000/svg" xmlns:xlink="http://www.w3.org/1999/xlink" x="0px" y="0px"
	 viewBox="0 0 470 260" style="enable-background:new 0 0 470 260;" xml:space="preserve">
<style type="text/css">
	.st0{fill:#FFFFFF;stroke:#4B4B4B;stroke-width:11;stroke-linecap:round;stroke-linejoin:round;stroke-miterlimit:10;}
	.st1{fill:none;stroke:#4B4B4B;stroke-width:11;stroke-linecap:round;stroke-linejoin:round;stroke-miterlimit:10;}
	.st2{fill:#059033;stroke:#00632D;stroke-width:11;stroke-linecap:round;stroke-linejoin:round;stroke-miterlimit:10;}
</style>
<g id="Layer_1">
	<path class="st0" d="M17.1,25.2c9.6,7.3,24.2,15.4,45.9,29.1c108.3,68.4,341.4,190,357.7,194.9c30.5,9.1,37.1-19.4,31.5-37.3
		C448.5,199.7,216.1,82.5,88,31.2C66.1,22.4,52.3,16.4,39.1,9.8C21.5,1,12.7,20.8,17.1,25.2z"/>
	<path class="st1" d="M87.4,69.1c0,0-5.8-10.3,4.4-22c9-10.3,16.5-7.5,16.5-7.5"/>
	<path class="st1" d="M139.2,99.5c0,0,37.4,5.6,63.6,5.6s44.9-2.8,44.9-2.8"/>
	<path class="st1" d="M236.9,153.1"/>
	<path class="st1" d="M347,151.8"/>
	<path class="st1" d="M417.8,247c0,0-12.9-43.7,34.8-35.3"/>
	<path class="st1" d="M443.2,205.2"/>
	<path class="st1" d="M270.2,172.5c0,0,51.4,3.7,77.6,3.7c26.2,0,44.9,0,44.9,0"/>
</g>
<g id="Layer_2">
	<ellipse transform="matrix(0.7071 -0.7071 0.7071 0.7071 -35.6389 375.9536)" class="st2" cx="436" cy="231" rx="14.1" ry="10.6"/>
</g>
</svg>
