<?xml version="1.0" encoding="utf-8"?>
<!-- Generator: Adobe Illustrator 21.0.0, SVG Export Plug-In . SVG Version: 6.00 Build 0)  -->
<svg version="1.1" id="Calque_1" xmlns="http://www.w3.org/2000/svg" xmlns:xlink="http://www.w3.org/1999/xlink" x="0px" y="0px"
	 viewBox="0 0 451.7 512" style="enable-background:new 0 0 451.7 512;" xml:space="preserve">
<g>
	<path d="M7,265.7L159.2,418c9.3,9.3,24.4,9.3,33.6,0c9.3-9.3,9.3-24.4,0-33.6L81.2,272.6h346.7c13.1,0,23.8-10.7,23.8-23.8
		c0-13.1-10.7-23.8-23.8-23.8H81.2l111.7-111.7c9.3-9.3,9.3-24.4,0-33.6c-4.6-4.6-10.7-7-16.8-7c-6.1,0-12.2,2.3-16.8,7L7,232
		C-2.3,241.3-2.3,256.4,7,265.7z"/>
</g>
</svg>
