<?xml version="1.0" encoding="utf-8"?>
<!-- Generator: Adobe Illustrator 21.0.0, SVG Export Plug-In . SVG Version: 6.00 Build 0)  -->
<svg version="1.1" xmlns="http://www.w3.org/2000/svg" xmlns:xlink="http://www.w3.org/1999/xlink" x="0px" y="0px"
	 viewBox="0 0 36 48" style="enable-background:new 0 0 36 48;" xml:space="preserve">
<style type="text/css">
	.st0{fill:#222222;}
</style>
<g id="Layer_3">
	<g>
		<path d="M18,0.1c0,2.8,0,6.1,0,9.9c4.9,0,8.8,4.1,8.8,9.2s-3.9,9-8.8,9c0,6.7,0,13.7,0,19.8c11-7.7,18.2-16.9,18-29.2
			C35.1,9,30.6,2,19.5,0.2C19,0.1,18.6,0.1,18,0.1z"/>
	</g>
</g>
<g id="Layer_3_copy">
	<g>
		<path class="st0" d="M18,0.1c0,2.8,0,6.1,0,9.9c-4.9,0-8.8,4.1-8.8,9.2s3.9,9,8.8,9c0,6.7,0,13.7,0,19.8C7,40.3-0.2,31.1,0,18.8
			C0.8,9,5.3,2,16.5,0.2C17,0.1,17.5,0.1,18,0.1z"/>
	</g>
</g>
</svg>
